<?xml version="1.0" encoding="UTF-8"?>
<svg version="1.1" xmlns="http://www.w3.org/2000/svg" width="663" height="434">
<path d="M0 0 C218.79 0 437.58 0 663 0 C663 143.22 663 286.44 663 434 C444.21 434 225.42 434 0 434 C0 290.78 0 147.56 0 0 Z " fill="#18141c" transform="translate(0,0)"/>
<path d="M0 0 C1.1982843 -0.00788544 1.1982843 -0.00788544 2.42077637 -0.01593018 C5.06928939 -0.02916021 7.71720316 -0.02037332 10.36572266 -0.01025391 C12.2135937 -0.01227577 14.06146396 -0.01518815 15.90933228 -0.01895142 C19.79151978 -0.02338047 23.67350057 -0.01693243 27.55566406 -0.00292969 C32.49921114 0.01404317 37.44226528 0.00440094 42.38579369 -0.01364708 C46.2088684 -0.02457176 50.03182954 -0.02099707 53.85490799 -0.0132637 C55.67511683 -0.01127934 57.49533639 -0.01365807 59.31553268 -0.02070236 C74.76892825 -0.06732626 90.28603693 0.58222364 102.43994141 11.42724609 C113.95209785 23.60646207 116.57063911 37.99884633 116.11572266 54.25146484 C115.14393579 65.51591542 109.01001185 74.4186719 102.93652344 83.66259766 C100.55496884 87.30574311 98.38820677 91.05506207 96.21728516 94.82568359 C95.42206865 96.17041574 94.62513721 97.51413494 93.82666016 98.85693359 C90.49476582 104.48686258 87.23334 110.157393 83.96728516 115.82568359 C83.02332886 117.4636792 83.02332886 117.4636792 82.06030273 119.13476562 C80.42880752 121.96664729 78.79773316 124.79877083 77.16680908 127.63098145 C74.41107454 132.41583143 71.65343895 137.1995853 68.89511108 141.98294067 C67.92634525 143.66328712 66.9581611 145.34396888 65.98999023 147.0246582 C65.39984131 148.04825439 64.80969238 149.07185059 64.20166016 150.12646484 C63.68442383 151.02405518 63.1671875 151.92164551 62.63427734 152.84643555 C61.16305795 155.37397104 59.66526686 157.8839491 58.15478516 160.38818359 C57.82478516 159.72818359 57.49478516 159.06818359 57.15478516 158.38818359 C58.06541434 155.85724547 59.04286506 153.43412646 60.11962891 150.97412109 C60.39585083 150.32741455 60.67207275 149.68070801 60.95666504 149.0144043 C61.99333819 146.59365845 63.04364386 144.17876906 64.09228516 141.76318359 C66.42291016 136.35943359 68.75353516 130.95568359 71.15478516 125.38818359 C56.96478516 125.38818359 42.77478516 125.38818359 28.15478516 125.38818359 C28.11611328 131.81544922 28.11611328 131.81544922 28.07666016 138.37255859 C28.04497984 141.79134472 28.00932966 145.2100382 27.97099304 148.62875366 C27.93162695 152.23640892 27.89924131 155.84381647 27.88378906 159.45166016 C27.86863298 162.9273495 27.83420805 166.40236493 27.78647614 169.87775421 C27.76444144 171.8474148 27.76231051 173.8172654 27.76043701 175.78704834 C27.74071838 176.98799133 27.72099976 178.18893433 27.70068359 179.42626953 C27.68735992 181.01178619 27.68735992 181.01178619 27.67376709 182.6293335 C27.02409603 186.08291242 25.91839728 187.2748583 23.15478516 189.38818359 C19.90258789 189.88989258 19.90258789 189.88989258 16.08837891 189.88427734 C15.41307632 189.88573257 14.73777374 189.88718781 14.04200745 189.88868713 C12.61902538 189.8870318 11.19602473 189.87551112 9.77319336 189.85473633 C7.59558173 189.82572751 5.42039839 189.83414243 3.24267578 189.84716797 C1.85789834 189.84093154 0.47312856 189.83254133 -0.91162109 189.82177734 C-2.79796265 189.80715454 -2.79796265 189.80715454 -4.72241211 189.79223633 C-7.84521484 189.38818359 -7.84521484 189.38818359 -9.51658058 188.31842804 C-11.51669693 185.4126521 -11.2586532 182.50451267 -11.22616577 179.10021973 C-11.23318573 177.97861474 -11.23318573 177.97861474 -11.2403475 176.83435106 C-11.25234138 174.32151741 -11.24282339 171.80922471 -11.23339844 169.29638672 C-11.2374622 167.49787578 -11.24280297 165.69936734 -11.24932861 163.90086365 C-11.26303132 159.01043796 -11.25769139 154.12020166 -11.24819136 149.22977257 C-11.24061004 144.11822362 -11.24763611 139.00669117 -11.25234985 133.8951416 C-11.25781187 125.31027304 -11.2506041 116.72548183 -11.23632812 108.140625 C-11.22000077 98.20729196 -11.22528896 88.27414363 -11.24180734 78.34081507 C-11.25540951 69.82101689 -11.25734809 61.3012744 -11.24949133 52.78146887 C-11.24480783 47.68912572 -11.24420854 42.59686947 -11.2541008 37.50453186 C-11.26274974 32.71762992 -11.2567866 27.93096673 -11.23941803 23.14409065 C-11.23544208 21.38443969 -11.2366061 19.62476873 -11.24320602 17.86512566 C-11.25136806 15.46852583 -11.24116542 13.07269772 -11.22616577 10.67614746 C-11.23285794 9.97488881 -11.2395501 9.27363015 -11.24644506 8.55112123 C-11.21211195 5.73546135 -11.13962806 3.82317395 -9.53779602 1.45649529 C-6.62052135 -0.38480998 -3.34242359 -0.02691076 0 0 Z " fill="#FCFCFC" transform="translate(244.84521484375,110.61181640625)"/>
<path d="M0 0 C1.25668488 0.00636726 1.25668488 0.00636726 2.53875732 0.01286316 C5.20846002 0.02962467 7.87740137 0.06727164 10.546875 0.10546875 C12.35936408 0.12051888 14.17186502 0.13420672 15.984375 0.14648438 C20.42216731 0.17951986 24.85939217 0.23128432 29.296875 0.29296875 C29.89892578 2.11669922 29.89892578 2.11669922 30.296875 4.29296875 C29.01131875 6.513475 27.72721058 8.39945809 26.171875 10.41796875 C25.23802087 11.67558795 24.3044404 12.93341038 23.37109375 14.19140625 C22.87013184 14.8575293 22.36916992 15.52365234 21.85302734 16.20996094 C19.18160987 19.78582129 16.58952575 23.41871889 13.984375 27.04296875 C12.87420809 28.57979575 11.76352569 30.1162505 10.65234375 31.65234375 C7.36532542 36.19787505 4.08086881 40.74525208 0.796875 45.29296875 C-0.27994202 46.78385842 -1.35676496 48.27474383 -2.43359375 49.765625 C-4.66586472 52.85641005 -6.89756178 55.94760852 -9.12890625 59.0390625 C-9.692146 59.81870361 -10.25538574 60.59834473 -10.83569336 61.40161133 C-11.94173829 62.93490047 -13.04547968 64.46985435 -14.14672852 66.0065918 C-16.49843219 69.28211416 -18.86304351 72.53037537 -21.3671875 75.69140625 C-22.11742187 76.65304688 -22.86765625 77.6146875 -23.640625 78.60546875 C-24.28902344 79.40597656 -24.93742187 80.20648438 -25.60546875 81.03125 C-26.9683625 83.24331287 -26.9683625 83.24331287 -26.18359375 85.6328125 C-24.28992298 89.03542409 -22.22947019 92.30022078 -20.078125 95.54296875 C-19.08127938 97.06461187 -18.08523518 98.58678021 -17.08984375 100.109375 C-16.54763184 100.93711426 -16.00541992 101.76485352 -15.44677734 102.61767578 C-12.23065168 107.55219063 -9.06274586 112.51759761 -5.890625 117.48046875 C-5.20726074 118.5487793 -4.52389648 119.61708984 -3.81982422 120.71777344 C1.12618755 128.45297715 6.05812349 136.19707042 10.98291016 143.94580078 C14.18702673 148.98502728 17.39933729 154.01890854 20.62109375 159.046875 C20.98526398 159.61530121 21.3494342 160.18372742 21.72463989 160.76937866 C23.50092355 163.54159015 25.27816271 166.31317949 27.05664062 169.08398438 C27.69666016 170.08236328 28.33667969 171.08074219 28.99609375 172.109375 C29.56158936 172.99052979 30.12708496 173.87168457 30.7097168 174.77954102 C31.233479 175.60897217 31.75724121 176.43840332 32.296875 177.29296875 C32.85608643 178.15656006 33.41529785 179.02015137 33.99145508 179.90991211 C35.6082114 182.86131635 35.52809763 184.97877768 35.296875 188.29296875 C30.92258719 190.48011266 25.03727365 189.52007496 20.17602539 189.53320312 C18.00302517 189.54288565 15.83098037 189.57389701 13.65820312 189.60546875 C12.27083894 189.61200144 10.883468 189.61725087 9.49609375 189.62109375 C8.23627686 189.63043945 6.97645996 189.63978516 5.6784668 189.64941406 C0.69747448 189.12437986 -1.7563695 187.29747177 -5.13671875 183.7109375 C-8.38846209 179.5902047 -11.05009985 175.08857334 -13.765625 170.60546875 C-14.92630055 168.70915608 -16.08777477 166.81333204 -17.25 164.91796875 C-17.83072266 163.96921875 -18.41144531 163.02046875 -19.00976562 162.04296875 C-21.47461371 158.04007821 -23.99300788 154.07210835 -26.515625 150.10546875 C-30.03658823 144.56284532 -33.51137611 138.99390031 -36.94140625 133.39453125 C-37.30480606 132.80167831 -37.66820587 132.20882538 -38.0426178 131.5980072 C-39.84867474 128.65025488 -41.65104031 125.70032507 -43.44848633 122.74731445 C-44.10228271 121.67827881 -44.7560791 120.60924316 -45.4296875 119.5078125 C-46.01314941 118.5499585 -46.59661133 117.59210449 -47.19775391 116.60522461 C-48.63515991 114.22307432 -48.63515991 114.22307432 -50.703125 112.29296875 C-52.22831137 113.93476896 -53.74800672 115.58167035 -55.265625 117.23046875 C-56.11253906 118.14699219 -56.95945312 119.06351562 -57.83203125 120.0078125 C-58.28383255 120.52599548 -58.73563385 121.04417847 -59.2011261 121.57806396 C-60.26684262 122.79484406 -61.36596923 123.98272007 -62.48674011 125.14898682 C-68.08779958 131.45556653 -68.67747007 136.37396326 -68.5 144.625 C-68.50517639 145.77916916 -68.51035278 146.93333832 -68.51568604 148.1224823 C-68.5275243 151.7843648 -68.49313252 155.44381638 -68.453125 159.10546875 C-68.43437296 162.78447454 -68.42561589 166.46296681 -68.43341064 170.14201355 C-68.43609074 172.4247008 -68.42232246 174.70747998 -68.39031982 176.98994446 C-68.38752014 178.02169296 -68.38472046 179.05344147 -68.38183594 180.11645508 C-68.37182556 181.02196609 -68.36181519 181.92747711 -68.35150146 182.86042786 C-68.77907749 185.81841008 -69.61693387 187.17329484 -71.703125 189.29296875 C-74.93359375 189.81054688 -74.93359375 189.81054688 -78.890625 189.82421875 C-79.58953857 189.82804565 -80.28845215 189.83187256 -81.00854492 189.83581543 C-82.48455243 189.83853443 -83.96060813 189.83117373 -85.43652344 189.81445312 C-87.69575421 189.79303862 -89.95180561 189.8142501 -92.2109375 189.83984375 C-93.64584035 189.83720047 -95.08074122 189.83207546 -96.515625 189.82421875 C-97.82144531 189.81970703 -99.12726563 189.81519531 -100.47265625 189.81054688 C-103.703125 189.29296875 -103.703125 189.29296875 -105.36886597 187.56729126 C-106.8905695 184.97345864 -107.1467603 183.37480712 -107.28173828 180.38623047 C-107.32925232 179.40845139 -107.37676636 178.4306723 -107.42572021 177.42326355 C-107.45796692 176.36706314 -107.49021362 175.31086273 -107.5234375 174.22265625 C-107.56084045 173.1217012 -107.59824341 172.02074615 -107.63677979 170.88642883 C-108.81336568 127.95934531 -108.81336568 127.95934531 -93.76806641 109.00439453 C-90.2831757 104.42846687 -87.58035297 99.42274403 -84.765625 94.41796875 C-83.61626616 92.44357186 -82.46388814 90.47092964 -81.30859375 88.5 C-74.69571102 77.14249718 -68.21001668 65.71138467 -61.703125 54.29296875 C-59.43338212 50.31317889 -57.1622595 46.33417909 -54.890625 42.35546875 C-54.40513184 41.50380127 -53.91963867 40.65213379 -53.41943359 39.7746582 C-51.2204685 35.922327 -49.00800685 32.08338907 -46.703125 28.29296875 C-46.208125 29.28296875 -46.208125 29.28296875 -45.703125 30.29296875 C-46.64013672 32.84887695 -46.64013672 32.84887695 -48.1328125 36.09375 C-48.67719971 37.2892749 -49.22158691 38.4847998 -49.7824707 39.71655273 C-50.07578278 40.35148651 -50.36909485 40.98642029 -50.67129517 41.64059448 C-51.57951386 43.60847807 -52.47730814 45.58078617 -53.37182617 47.55493164 C-54.57393185 50.20789453 -55.77820867 52.85984514 -56.98486328 55.51074219 C-59.36096067 60.73653815 -61.71032298 65.9730224 -64.015625 71.23046875 C-64.39380371 72.06811768 -64.77198242 72.9057666 -65.16162109 73.76879883 C-67.05868943 78.1237805 -68.16280636 81.43904525 -67.703125 86.29296875 C-67.26484375 85.40738281 -66.8265625 84.52179688 -66.375 83.609375 C-61.8756601 74.74053052 -56.66046205 66.72317114 -50.83984375 58.671875 C-47.70180014 54.32681679 -44.71988367 49.88934508 -41.765625 45.41796875 C-35.50984966 35.97472693 -29.14641058 26.60925219 -22.703125 17.29296875 C-22.21473145 16.58462891 -21.72633789 15.87628906 -21.22314453 15.14648438 C-19.86994076 13.18984369 -18.50737566 11.24016278 -17.140625 9.29296875 C-16.7472998 8.72352539 -16.35397461 8.15408203 -15.94873047 7.56738281 C-11.27254036 0.96833033 -8.00133113 -0.15284704 0 0 Z " fill="#FCFCFC" transform="translate(408.703125,151.70703125)"/>
<path d="M0 0 C0.82543304 -0.00570007 1.65086609 -0.01140015 2.50131226 -0.01727295 C4.25493075 -0.0267418 6.00856719 -0.03326438 7.76220703 -0.03710938 C10.42903488 -0.04675956 13.09507384 -0.07774103 15.76171875 -0.109375 C17.46614126 -0.1159105 19.17056929 -0.12115882 20.875 -0.125 C21.66693756 -0.1373468 22.45887512 -0.1496936 23.27481079 -0.16241455 C28.53672308 -0.14155478 32.16473835 0.73495938 36.8359375 3.203125 C41.847256 8.34632031 41.99674708 12.79652364 42.0390625 19.71484375 C42.04476257 20.44250443 42.05046265 21.1701651 42.05633545 21.9198761 C42.06576449 23.4588578 42.07231109 24.99785949 42.07617188 26.53686523 C42.08583301 28.86544121 42.11685638 31.19311696 42.1484375 33.52148438 C42.2035164 41.2309769 42.08219574 48.0566293 38.8359375 55.203125 C36.22741406 57.81164844 33.67293467 59.08790606 29.9186554 59.32337952 C29.19695663 59.32115891 28.47525787 59.31893829 27.73168945 59.31665039 C26.5007531 59.31653709 26.5007531 59.31653709 25.24494934 59.31642151 C23.9229377 59.30867958 23.9229377 59.30867958 22.57421875 59.30078125 C21.66842575 59.2993663 20.76263275 59.29795135 19.82939148 59.29649353 C16.93570659 59.29089501 14.04209901 59.27834281 11.1484375 59.265625 C9.18685008 59.26060981 7.22526144 59.25604693 5.26367188 59.25195312 C0.45439729 59.24092607 -4.3548195 59.22366247 -9.1640625 59.203125 C-9.18719101 51.65814267 -9.20498019 44.11316399 -9.21587467 36.56815434 C-9.22110239 33.06503615 -9.228198 29.56194215 -9.23950195 26.05883789 C-9.25240456 22.03531659 -9.25729162 18.01182086 -9.26171875 13.98828125 C-9.26946068 12.09300438 -9.26946068 12.09300438 -9.27735901 10.15943909 C-9.27743454 8.998311 -9.27751007 7.83718292 -9.27758789 6.64086914 C-9.28091881 5.0986544 -9.28091881 5.0986544 -9.28431702 3.52528381 C-9.01786078 -1.62008388 -4.04148942 0.02136078 0 0 Z " fill="#010101" transform="translate(281.1640625,142.796875)"/>
<path d="M0 0 C1 2 1 2 0.44262695 3.86352539 C-0.58550478 6.27038992 -1.62503058 8.67056278 -2.6875 11.0625 C-3.04005859 11.90361328 -3.39261719 12.74472656 -3.75585938 13.61132812 C-4.10841797 14.41119141 -4.46097656 15.21105469 -4.82421875 16.03515625 C-5.14479248 16.7712915 -5.46536621 17.50742676 -5.7956543 18.26586914 C-7 20 -7 20 -9.13598633 20.74780273 C-10.0586731 20.87264038 -10.0586731 20.87264038 -11 21 C-9.3003494 16.26525903 -6.86340973 12.03832889 -4.375 7.6875 C-3.95476562 6.94693359 -3.53453125 6.20636719 -3.1015625 5.44335938 C-2.07051505 3.62730989 -1.03563954 1.81343467 0 0 Z " fill="#CCCCCC" transform="translate(362,180)"/>
<path d="M0 0 C0.66 0.33 1.32 0.66 2 1 C1.42176904 5.06225548 0.10882263 7.84762346 -2.0625 11.3125 C-2.61035156 12.19550781 -3.15820312 13.07851563 -3.72265625 13.98828125 C-4.14417969 14.65214844 -4.56570313 15.31601562 -5 16 C-5.33 15.34 -5.66 14.68 -6 14 C-5.09176973 11.56442428 -4.13171929 9.23804483 -3.0625 6.875 C-2.77181641 6.21628906 -2.48113281 5.55757813 -2.18164062 4.87890625 C-1.46139802 3.24950495 -0.73158857 1.62433868 0 0 Z " fill="#D0D0D0" transform="translate(308,255)"/>
</svg>
